<?xml version="1.0" standalone="no"?>
<!DOCTYPE svg PUBLIC "-//W3C//DTD SVG 20010904//EN"
 "http://www.w3.org/TR/2001/REC-SVG-20010904/DTD/svg10.dtd">
<svg version="1.0" xmlns="http://www.w3.org/2000/svg"
 width="1090.000000pt" height="1090.000000pt" viewBox="0 0 1080.000000 1080.000000"
 preserveAspectRatio="xMidYMid meet">

<g transform="translate(0.000000,1080.000000) scale(0.100000,-0.100000)"
fill="#000000" stroke="none">
<path d="M6040 9140 l0 -130 93 0 c147 0 404 -19 502 -37 353 -64 483 -218
527 -624 19 -178 19 -4167 0 -4504 -40 -708 -121 -1129 -278 -1435 -124 -243
-287 -387 -504 -447 -92 -25 -367 -26 -460 0 -235 64 -394 208 -472 427 -32
88 -36 262 -9 374 36 150 104 279 220 415 l54 64 -11 113 c-36 345 -200 603
-465 734 -153 76 -230 93 -417 93 -173 1 -259 -15 -385 -72 -325 -148 -514
-507 -491 -934 31 -589 383 -1030 1028 -1288 545 -218 1354 -277 2043 -148
576 107 1020 323 1378 668 203 196 337 380 465 639 156 314 243 626 299 1072
15 121 18 341 24 2195 4 1479 9 2078 18 2124 41 231 105 349 234 432 77 50
143 74 269 99 106 21 353 40 516 40 l92 0 0 130 0 130 -2135 0 -2135 0 0 -130z"/>
<path d="M1675 5069 c-339 -26 -622 -139 -808 -322 -166 -164 -262 -361 -314
-647 -24 -134 -24 -468 0 -600 73 -399 268 -674 593 -839 303 -154 776 -193
1154 -95 340 89 608 309 749 616 88 191 116 342 116 618 -1 227 -13 324 -65
490 -107 348 -370 608 -720 714 -127 38 -211 53 -359 65 -149 12 -185 12 -346
0z"/>
</g>
</svg>
